<svg id="Ebene_1" data-name="Ebene 1" xmlns="http://www.w3.org/2000/svg" viewBox="0 0 155.35 189.74"><text transform="translate(35.72 142.64)" font-size="15" font-family="OpenSans-CondensedBold, Open Sans Condensed" font-weight="700">Aachen</text><polygon points="41.31 46.06 61.44 46.06 61.44 41.14 41.31 41.14 41.31 35.2 36.39 35.2 36.39 52 41.31 52 41.31 46.06"/><path d="M69.11,42.23c0-4.08.87-5.89,2.5-5.89s2.5,1.81,2.5,5.89v3.9c0,4.08-.87,5.89-2.5,5.89s-2.5-1.81-2.5-5.89ZM71.61,57C75.32,57,78,53.57,78,46.13v-3.9c0-7.52-2.72-10.87-6.43-10.87s-6.42,3.35-6.42,10.87v3.9C65.19,53.57,67.9,57,71.61,57"/><path d="M84.44,36.7H86c2,0,3,1.09,3,3.11,0,2.49-.9,3.43-3,3.43H84.44Zm0,11.52h2.22c3.78,0,6.16-2.89,6.16-8.41s-2.41-8.09-6.16-8.09H80.52V56.64h3.92Z"/><polygon points="104.78 51.66 98.4 51.66 98.4 46.24 104.07 46.24 104.07 41.25 98.4 41.25 98.4 36.7 104.78 36.7 104.78 31.72 94.48 31.72 94.48 56.64 104.78 56.64 104.78 51.66"/><polygon points="115.95 45.7 109.91 31.72 106.79 31.72 106.79 56.64 110.47 56.64 110.47 42.84 116.47 56.64 119.64 56.64 119.64 31.72 115.95 31.72 115.95 45.7"/><polygon points="114.66 70.41 86.41 70.41 86.41 75.38 114.66 75.38 114.66 81.3 119.63 81.3 119.63 64.5 114.66 64.5 114.66 70.41"/><path d="M42.2,80.82H40.34V75.36h1.58c2,0,2.88.69,2.88,2.71,0,1.84-.85,2.75-2.6,2.75m-1.86-15h1.3c2.15,0,2.64.87,2.64,2.35s-.71,2.21-2.29,2.21H40.34Zm6,6.87a6.82,6.82,0,0,0,1.86-5.21c0-4.55-2.24-6.6-6.09-6.6H36.42V85.8h6.21c4.35,0,6.09-3.18,6.09-7.15,0-3.07-.89-4.84-2.38-6"/><rect x="51.09" y="60.88" width="3.92" height="24.92"/><polygon points="66.94 85.8 71.61 85.8 65.94 70.95 70.76 60.88 66.21 60.88 62 70.12 62 60.88 58.08 60.88 58.08 85.8 62 85.8 62 79.19 63.42 76.23 66.94 85.8"/><polygon points="83.69 65.86 83.69 60.88 73.39 60.88 73.39 85.8 83.69 85.8 83.69 80.81 77.31 80.81 77.31 75.4 82.98 75.4 82.98 70.41 77.31 70.41 77.31 65.86 83.69 65.86"/><path d="M43,100c-2.06-.9-2.91-1.74-2.91-3.22,0-1.26.57-2.16,1.87-2.16,1.46,0,2.27.61,2.9,2.27l2.91-3.18A6.1,6.1,0,0,0,42,89.67c-4,0-5.74,3.07-5.74,7.19s1.42,6.32,4.73,8C43.35,106,44,106.72,44,108.17a1.94,1.94,0,0,1-2.11,2.16,3.45,3.45,0,0,1-3.26-2.24l-2.92,3.15c1.53,3,3.54,4.08,6.51,4.08,3.71,0,5.7-2.93,5.7-7.44,0-4.26-1.35-6.29-4.89-7.84"/><polygon points="50.06 114.96 60.35 114.96 60.35 109.97 53.98 109.97 53.98 104.55 59.65 104.55 59.65 99.57 53.98 99.57 53.98 95.02 60.35 95.02 60.35 90.03 50.06 90.03 50.06 114.96"/><polygon points="71.53 104.01 65.48 90.03 62.37 90.03 62.37 114.96 66.05 114.96 66.05 101.16 72.05 114.96 75.21 114.96 75.21 90.03 71.53 90.03 71.53 104.01"/><path d="M84.66,100c-2-.9-2.9-1.74-2.9-3.22,0-1.26.57-2.16,1.86-2.16,1.47,0,2.27.61,2.91,2.27l2.9-3.18a6.08,6.08,0,0,0-5.85-4.08c-4,0-5.74,3.07-5.74,7.19s1.41,6.32,4.72,8c2.41,1.19,3.07,1.91,3.07,3.36a1.94,1.94,0,0,1-2.1,2.16,3.43,3.43,0,0,1-3.26-2.24l-2.93,3.15c1.54,3,3.54,4.08,6.52,4.08,3.71,0,5.69-2.93,5.69-7.44,0-4.26-1.34-6.29-4.89-7.84"/><path d="M100.25,104.45c0,4.08-.87,5.88-2.5,5.88s-2.5-1.8-2.5-5.88v-3.91c0-4.08.87-5.88,2.5-5.88s2.5,1.8,2.5,5.88Zm-2.5-14.78c-3.71,0-6.42,3.36-6.42,10.87v3.91c0,7.44,2.71,10.87,6.42,10.87s6.43-3.43,6.43-10.87v-3.91c0-7.51-2.72-10.87-6.43-10.87"/><path d="M112.32,100.54h-1.74V95h1.74c1.59,0,2.72.47,2.72,2.85s-1.13,2.67-2.72,2.67M119,97.87c0-5.2-2.41-7.84-6.16-7.84h-6.14V115h3.92v-9.43h2l2.72,9.43h4.29l-3.26-10.48c1.66-1.15,2.6-3.36,2.6-6.61"/><rect x="35.72" y="120.62" width="83.92" height="5"/></svg>