<svg id="Ebene_1" data-name="Ebene 1" xmlns="http://www.w3.org/2000/svg" viewBox="0 0 155.35 189.74"><path d="M40.48,142.64l-2-9.12h-.08a15.52,15.52,0,0,1,.14,1.94v7.18H36.66V131.93h3.06l1.83,8.42h.06l1.82-8.42h3.1v10.71H44.64v-7.26a16.64,16.64,0,0,1,.11-1.84h-.06l-2,9.1Z"/><path d="M52.31,142.64l-.39-1.11h-.05a2.66,2.66,0,0,1-.89,1,2.29,2.29,0,0,1-1.16.27,1.68,1.68,0,0,1-1.42-.68,3,3,0,0,1-.52-1.87,2.45,2.45,0,0,1,.71-1.92,3.42,3.42,0,0,1,2.11-.69l1.09,0V137q0-1.14-1-1.14a3.42,3.42,0,0,0-1.69.57l-.67-1.35a4.87,4.87,0,0,1,2.64-.77,2.54,2.54,0,0,1,2,.75,3,3,0,0,1,.67,2.1v5.48Zm-1.7-1.37a1,1,0,0,0,.86-.48,2.31,2.31,0,0,0,.32-1.28v-.69l-.6,0a1.33,1.33,0,0,0-1,.38,1.47,1.47,0,0,0-.31,1C49.9,140.93,50.14,141.27,50.61,141.27Z"/><path d="M59.37,142.64v-4.86a3.31,3.31,0,0,0-.21-1.34.72.72,0,0,0-.69-.46,1,1,0,0,0-.92.63,5.34,5.34,0,0,0-.29,2.11v3.92H55.31v-8.16h1.54l.24,1.05h.12a2,2,0,0,1,1.91-1.2,1.91,1.91,0,0,1,1.66.76,3.76,3.76,0,0,1,.56,2.23v5.32Z"/><path d="M67,142.64v-4.86a3.12,3.12,0,0,0-.22-1.34.72.72,0,0,0-.68-.46,1,1,0,0,0-.93.63,5.54,5.54,0,0,0-.29,2.11v3.92h-2v-8.16h1.55l.23,1.05h.13a2,2,0,0,1,.75-.88,2.09,2.09,0,0,1,1.15-.32,1.93,1.93,0,0,1,1.67.76,3.84,3.84,0,0,1,.55,2.23v5.32Z"/><path d="M74.58,142.64v-4.86q0-1.8-.9-1.8a1,1,0,0,0-1,.71,5.94,5.94,0,0,0-.27,2v3.92H70.51V131.25h1.95v2.53c0,.33,0,.91-.09,1.75h.11a1.9,1.9,0,0,1,1.8-1.2,2,2,0,0,1,1.69.76,3.67,3.67,0,0,1,.57,2.23v5.32Z"/><path d="M81.13,142.79a2.94,2.94,0,0,1-2.42-1.09,4.75,4.75,0,0,1-.88-3.08,5.45,5.45,0,0,1,.8-3.16,2.57,2.57,0,0,1,2.23-1.13,2.55,2.55,0,0,1,2.1,1,4.29,4.29,0,0,1,.77,2.72v1H79.81a2.63,2.63,0,0,0,.44,1.62,1.42,1.42,0,0,0,1.18.53,3.78,3.78,0,0,0,1.95-.59v1.6A4.27,4.27,0,0,1,81.13,142.79Zm-.29-7a.8.8,0,0,0-.69.44,3.06,3.06,0,0,0-.31,1.38h2a2.86,2.86,0,0,0-.27-1.36A.77.77,0,0,0,80.84,135.83Z"/><path d="M85,132.35a1,1,0,0,1,.28-.76,1.07,1.07,0,0,1,.79-.29,1,1,0,0,1,.76.29,1,1,0,0,1,.29.76,1,1,0,0,1-.3.77,1,1,0,0,1-.75.28,1.08,1.08,0,0,1-.78-.28A1,1,0,0,1,85,132.35Zm2,10.29H85v-8.16h2Z"/><path d="M96.75,142.64v-4.86c0-1.2-.3-1.8-.89-1.8a1,1,0,0,0-.92.65,5.4,5.4,0,0,0-.28,2.05v4h-2v-4.86q0-1.8-.9-1.8a1,1,0,0,0-.92.64,5.63,5.63,0,0,0-.28,2.1v3.92H88.65v-8.16h1.54l.24,1.05h.12a2.06,2.06,0,0,1,.8-.91,2.22,2.22,0,0,1,1.09-.29,1.93,1.93,0,0,1,2,1.41h.08a2.08,2.08,0,0,1,2-1.41,1.9,1.9,0,0,1,1.64.76,3.76,3.76,0,0,1,.56,2.23v5.32Z"/><path d="M100,139.48v-1.72h3.68v1.72Z"/><path d="M36.66,159.64V148.93h2v9h2.76v1.74Z"/><path d="M47,159.64l-.24-1h-.1a2.06,2.06,0,0,1-.78.87,2.08,2.08,0,0,1-1.14.32,1.94,1.94,0,0,1-1.66-.75,3.65,3.65,0,0,1-.57-2.23v-5.33h2v4.86a3.37,3.37,0,0,0,.21,1.35.72.72,0,0,0,.69.45,1,1,0,0,0,.92-.63,5.56,5.56,0,0,0,.29-2.12v-3.91h2v8.16Z"/><path d="M52.32,159.79a2,2,0,0,1-1.78-1.11,6.24,6.24,0,0,1-.65-3.1,6.31,6.31,0,0,1,.64-3.12,2,2,0,0,1,1.75-1.13,1.72,1.72,0,0,1,1,.27,2.63,2.63,0,0,1,.75.93h.11c0-.74-.08-1.26-.08-1.56v-2.72H56v11.39H54.52l-.32-1.06h-.07A2,2,0,0,1,52.32,159.79Zm.63-1.65a.82.82,0,0,0,.79-.49,4.48,4.48,0,0,0,.27-1.8v-.26a5.55,5.55,0,0,0-.25-2,.87.87,0,0,0-.83-.58c-.36,0-.63.22-.79.67a5.93,5.93,0,0,0-.24,1.93,5.73,5.73,0,0,0,.24,1.9A.85.85,0,0,0,53,158.14Z"/><path d="M63.3,159.64l-.81-4.74-.29-2h0c-.07.65-.13,1.12-.17,1.41l-.93,5.33H58.56l-1.63-8.16h2l.75,4.5q.13.75.24,2.19h0c0-.26,0-.65.11-1.18s.1-.87.12-1l.81-4.49h2.5l.8,4.5a21.16,21.16,0,0,1,.24,2.19h0c.07-.87.15-1.6.26-2.19l.77-4.5h1.91l-1.64,8.16Z"/><path d="M68.38,149.35a1,1,0,0,1,.28-.76,1.07,1.07,0,0,1,.79-.29,1,1,0,0,1,.76.29,1.15,1.15,0,0,1,0,1.53,1.19,1.19,0,0,1-1.53,0A1,1,0,0,1,68.38,149.35Zm2,10.29h-2v-8.16h2Z"/><path d="M78,151.5v1.14l-1,.22a2.62,2.62,0,0,1,.29,1.29,2.82,2.82,0,0,1-.71,2,2.58,2.58,0,0,1-2,.73,1.82,1.82,0,0,1-.54-.06l-.27.28a.6.6,0,0,0-.12.38c0,.34.3.51.89.51h1.18a2.19,2.19,0,0,1,1.6.56,2.33,2.33,0,0,1,.56,1.69,2.67,2.67,0,0,1-1,2.2,4.19,4.19,0,0,1-2.73.78,3.27,3.27,0,0,1-2.09-.59,2,2,0,0,1-.73-1.68,1.82,1.82,0,0,1,.41-1.2A2.31,2.31,0,0,1,73,159a1.4,1.4,0,0,1-.61-.46,1.12,1.12,0,0,1-.24-.72,1.33,1.33,0,0,1,.07-.45,1.58,1.58,0,0,1,.21-.38,4.36,4.36,0,0,1,.56-.53,2,2,0,0,1-.8-.94,3.31,3.31,0,0,1-.3-1.42,2.87,2.87,0,0,1,.71-2.07,2.65,2.65,0,0,1,2-.73,4.13,4.13,0,0,1,.57,0,3.17,3.17,0,0,1,.49.12Zm-4.8,9.33a.92.92,0,0,0,.3.74,1.26,1.26,0,0,0,.87.26,2.23,2.23,0,0,0,1.33-.33,1.13,1.13,0,0,0,.44-.93.8.8,0,0,0-.24-.65,1.44,1.44,0,0,0-.89-.19H74a.75.75,0,0,0-.63.3A1.21,1.21,0,0,0,73.16,160.83Zm.6-6.68q0,1.44.81,1.44c.53,0,.79-.48.79-1.46s-.26-1.49-.79-1.49S73.76,153.14,73.76,154.15Z"/><path d="M83.32,157.25a2.5,2.5,0,0,1-.7,1.87,2.92,2.92,0,0,1-2.06.67,3.77,3.77,0,0,1-2-.48v-1.69a3.43,3.43,0,0,0,.94.46,3.07,3.07,0,0,0,1,.19,1,1,0,0,0,.69-.23.76.76,0,0,0,.24-.59,1,1,0,0,0-.25-.65,4.16,4.16,0,0,0-.92-.68A3.77,3.77,0,0,1,78.94,155a2.47,2.47,0,0,1-.38-1.4,2,2,0,0,1,.71-1.65,2.91,2.91,0,0,1,2-.61,3.93,3.93,0,0,1,2,.57l-.63,1.4a3.09,3.09,0,0,0-1.38-.43.73.73,0,0,0-.56.2.66.66,0,0,0-.19.49.87.87,0,0,0,.23.58,4.48,4.48,0,0,0,.86.64,5.58,5.58,0,0,1,1.07.78,2.31,2.31,0,0,1,.48.73A2.61,2.61,0,0,1,83.32,157.25Z"/><path d="M88.61,159.64v-4.86q0-1.8-.9-1.8a1,1,0,0,0-.94.71,5.94,5.94,0,0,0-.27,2v3.92h-2V148.25h2v2.53c0,.33,0,.91-.09,1.75h.1a1.9,1.9,0,0,1,1.8-1.2,2,2,0,0,1,1.69.76,3.67,3.67,0,0,1,.57,2.23v5.32Z"/><path d="M96.15,159.64l-.39-1.11h0a2.76,2.76,0,0,1-.9,1,2.24,2.24,0,0,1-1.16.27,1.7,1.7,0,0,1-1.42-.68,3,3,0,0,1-.52-1.87,2.45,2.45,0,0,1,.71-1.92,3.44,3.44,0,0,1,2.11-.69l1.09,0V154q0-1.14-1-1.14a3.35,3.35,0,0,0-1.68.57l-.68-1.35a4.87,4.87,0,0,1,2.65-.77,2.52,2.52,0,0,1,2,.75,3,3,0,0,1,.68,2.1v5.48Zm-1.69-1.37a1,1,0,0,0,.85-.48,2.31,2.31,0,0,0,.32-1.28v-.69l-.6,0a1.34,1.34,0,0,0-1,.38,1.47,1.47,0,0,0-.31,1Q93.74,158.27,94.46,158.27Z"/><path d="M102.78,153h-1.35v6.61h-2V153h-.94v-1l.94-.58v-.62a3,3,0,0,1,.57-2,2.25,2.25,0,0,1,1.81-.66,3.29,3.29,0,0,1,1.47.32l-.51,1.49a1.65,1.65,0,0,0-.75-.17.53.53,0,0,0-.49.26,1.71,1.71,0,0,0-.15.81v.6h1.35Z"/><path d="M106.64,159.79a2.92,2.92,0,0,1-2.41-1.09,4.75,4.75,0,0,1-.88-3.08,5.37,5.37,0,0,1,.8-3.16,2.76,2.76,0,0,1,4.33-.16,4.29,4.29,0,0,1,.76,2.72v1h-3.91a2.63,2.63,0,0,0,.44,1.62,1.42,1.42,0,0,0,1.17.53,3.73,3.73,0,0,0,2-.59v1.6A4.23,4.23,0,0,1,106.64,159.79Zm-.28-7a.8.8,0,0,0-.69.44,3,3,0,0,0-.32,1.38h2a3,3,0,0,0-.27-1.36A.77.77,0,0,0,106.36,152.83Z"/><path d="M114.6,159.64v-4.86a3.31,3.31,0,0,0-.21-1.34.73.73,0,0,0-.69-.46,1,1,0,0,0-.93.63,5.54,5.54,0,0,0-.29,2.11v3.92h-2v-8.16h1.55l.23,1.05h.13a2,2,0,0,1,.75-.88,2.09,2.09,0,0,1,1.15-.32,1.93,1.93,0,0,1,1.67.76,3.76,3.76,0,0,1,.55,2.23v5.32Z"/><text transform="translate(104.19 142.64)" font-size="15" font-family="OpenSans-CondensedBold, Open Sans Condensed" font-weight="700"> </text><polygon points="41.31 46.06 61.44 46.06 61.44 41.14 41.31 41.14 41.31 35.2 36.39 35.2 36.39 52 41.31 52 41.31 46.06"/><path d="M69.11,42.23c0-4.08.87-5.89,2.5-5.89s2.5,1.81,2.5,5.89v3.9c0,4.08-.87,5.89-2.5,5.89s-2.5-1.81-2.5-5.89ZM71.61,57C75.32,57,78,53.57,78,46.13v-3.9c0-7.52-2.72-10.87-6.43-10.87s-6.42,3.35-6.42,10.87v3.9C65.19,53.57,67.9,57,71.61,57"/><path d="M84.44,36.7H86c2,0,3,1.09,3,3.11,0,2.49-.9,3.43-3,3.43H84.44Zm0,11.52h2.22c3.78,0,6.16-2.89,6.16-8.41s-2.41-8.09-6.16-8.09H80.52V56.64h3.92Z"/><polygon points="104.78 51.66 98.4 51.66 98.4 46.24 104.07 46.24 104.07 41.25 98.4 41.25 98.4 36.7 104.78 36.7 104.78 31.72 94.48 31.72 94.48 56.64 104.78 56.64 104.78 51.66"/><polygon points="115.95 45.7 109.91 31.72 106.79 31.72 106.79 56.64 110.47 56.64 110.47 42.84 116.47 56.64 119.64 56.64 119.64 31.72 115.95 31.72 115.95 45.7"/><polygon points="114.66 70.41 86.41 70.41 86.41 75.38 114.66 75.38 114.66 81.3 119.63 81.3 119.63 64.5 114.66 64.5 114.66 70.41"/><path d="M42.2,80.82H40.34V75.36h1.58c2,0,2.88.69,2.88,2.71,0,1.84-.85,2.75-2.6,2.75m-1.86-15h1.3c2.15,0,2.64.87,2.64,2.35s-.71,2.21-2.29,2.21H40.34Zm6,6.87a6.82,6.82,0,0,0,1.86-5.21c0-4.55-2.24-6.6-6.09-6.6H36.42V85.8h6.21c4.35,0,6.09-3.18,6.09-7.15,0-3.07-.89-4.84-2.38-6"/><rect x="51.09" y="60.88" width="3.92" height="24.92"/><polygon points="66.94 85.8 71.61 85.8 65.94 70.95 70.76 60.88 66.21 60.88 62 70.12 62 60.88 58.08 60.88 58.08 85.8 62 85.8 62 79.19 63.42 76.23 66.94 85.8"/><polygon points="83.69 65.86 83.69 60.88 73.39 60.88 73.39 85.8 83.69 85.8 83.69 80.81 77.31 80.81 77.31 75.4 82.98 75.4 82.98 70.41 77.31 70.41 77.31 65.86 83.69 65.86"/><path d="M43,100c-2.06-.9-2.91-1.74-2.91-3.22,0-1.26.57-2.16,1.87-2.16,1.46,0,2.27.61,2.9,2.27l2.91-3.18A6.1,6.1,0,0,0,42,89.67c-4,0-5.74,3.07-5.74,7.19s1.42,6.32,4.73,8C43.35,106,44,106.72,44,108.17a1.94,1.94,0,0,1-2.11,2.16,3.45,3.45,0,0,1-3.26-2.24l-2.92,3.15c1.53,3,3.54,4.08,6.51,4.08,3.71,0,5.7-2.93,5.7-7.44,0-4.26-1.35-6.29-4.89-7.84"/><polygon points="50.06 114.96 60.35 114.96 60.35 109.97 53.98 109.97 53.98 104.55 59.65 104.55 59.65 99.57 53.98 99.57 53.98 95.02 60.35 95.02 60.35 90.03 50.06 90.03 50.06 114.96"/><polygon points="71.53 104.01 65.48 90.03 62.37 90.03 62.37 114.96 66.05 114.96 66.05 101.16 72.05 114.96 75.21 114.96 75.21 90.03 71.53 90.03 71.53 104.01"/><path d="M84.66,100c-2-.9-2.9-1.74-2.9-3.22,0-1.26.57-2.16,1.86-2.16,1.47,0,2.27.61,2.91,2.27l2.9-3.18a6.08,6.08,0,0,0-5.85-4.08c-4,0-5.74,3.07-5.74,7.19s1.41,6.32,4.72,8c2.41,1.19,3.07,1.91,3.07,3.36a1.94,1.94,0,0,1-2.1,2.16,3.43,3.43,0,0,1-3.26-2.24l-2.93,3.15c1.54,3,3.54,4.08,6.52,4.08,3.71,0,5.69-2.93,5.69-7.44,0-4.26-1.34-6.29-4.89-7.84"/><path d="M100.25,104.45c0,4.08-.87,5.88-2.5,5.88s-2.5-1.8-2.5-5.88v-3.91c0-4.08.87-5.88,2.5-5.88s2.5,1.8,2.5,5.88Zm-2.5-14.78c-3.71,0-6.42,3.36-6.42,10.87v3.91c0,7.44,2.71,10.87,6.42,10.87s6.43-3.43,6.43-10.87v-3.91c0-7.51-2.72-10.87-6.43-10.87"/><path d="M112.32,100.54h-1.74V95h1.74c1.59,0,2.72.47,2.72,2.85s-1.13,2.67-2.72,2.67M119,97.87c0-5.2-2.41-7.84-6.16-7.84h-6.14V115h3.92v-9.43h2l2.72,9.43h4.29l-3.26-10.48c1.66-1.15,2.6-3.36,2.6-6.61"/><rect x="35.72" y="120.62" width="83.92" height="5"/></svg>